<svg version="1.2" xmlns="http://www.w3.org/2000/svg" viewBox="0 0 279 362" width="279" height="362">
	<title>tesla-motors-svg</title>
	<style>
		.s0 { fill: #e82127 } 
	</style>
	<g id="TESLA">
		<g id="g8">
			<path id="polyline10" class="s0" d="m238.1 339.5v21.9h7v-14.6h25.6v14.6h7v-21.9h-39.6"/>
			<path id="path12" class="s0" d="m244.3 332.4h27c3.8-0.8 6.6-4.1 7.4-7.3h-41.7c0.8 3.2 3.6 6.5 7.3 7.3z"/>
		</g>
		<g id="g14">
			<path id="path16" class="s0" d="m216.8 361.4c3.5-1.5 5.4-4.1 6.2-7.1h-31.5v-29.1h-7.1v36.2z"/>
		</g>
		<g id="g18">
			<path id="path20" class="s0" d="m131.9 332.3h24.9c3.8-1.1 6.9-4 7.7-7.1h-39.6v21.4h32.4v7.5h-25.4c-4 1.1-7.4 3.8-9.1 7.3h2.1 39.4v-21.9h-32.4z"/>
		</g>
		<g id="g22">
			<path id="path24" class="s0" d="m70.3 332.4h27c3.7-0.8 6.5-4.1 7.3-7.3h-41.7c0.8 3.2 3.6 6.5 7.4 7.3z"/>
			<path id="path26" class="s0" d="m70.3 346.7h27c3.7-0.8 6.5-4.1 7.3-7.3h-41.7c0.8 3.2 3.6 6.5 7.4 7.3z"/>
			<path id="path28" class="s0" d="m70.3 361.4h27c3.7-0.7 6.5-4.1 7.3-7.3h-41.7c0.8 3.2 3.6 6.6 7.4 7.3z"/>
		</g>
		<g id="g30">
			<path id="path32" class="s0" d="m0 325.2c0.8 3.2 3.6 6.4 7.3 7.2h11.4l0.6 0.2v28.7h7.1v-28.7l0.6-0.2h11.4c3.8-1 6.5-4 7.3-7.2v-0.1h-45.7z"/>
		</g>
	</g>
	<g id="T">
		<path id="path35" class="s0" d="m139.3 253.5l35.5-199.5c33.8 0 44.5 3.7 46 18.8 0 0 22.7-8.4 34.2-25.6-44.7-20.7-89.5-21.6-89.5-21.6l-26.2 31.9 0.1-0.1-26.2-31.8c0 0-44.9 0.9-89.5 21.6 11.4 17.2 34.1 25.6 34.1 25.6 1.5-15.1 12.2-18.8 45.8-18.8z"/>
		<path id="path37" class="s0" d="m139.3 16.4c36.1-0.3 77.4 5.5 119.7 24 5.7-10.2 7.1-14.7 7.1-14.7-46.2-18.3-89.5-24.5-126.8-24.7-37.2 0.2-80.5 6.4-126.8 24.7 0 0 2.1 5.5 7.1 14.7 42.3-18.5 83.6-24.3 119.7-24z"/>
	</g>
</svg>